<svg xmlns="http://www.w3.org/2000/svg" xmlns:xlink="http://www.w3.org/1999/xlink" viewBox="0 0 463.58 371.23"><defs><linearGradient id="a" x1="167.26" y1="-757.64" x2="219.42" y2="-734.42" gradientUnits="userSpaceOnUse"><stop offset="0" stop-color="#fff"/><stop offset="1"/></linearGradient></defs><title>onBoardingStep2</title><path d="M200.7-853.27a151.49,151.49,0,0,1,30.08-5.86c54-4.54,105.24,15.76,147.21,48.79,11.78,9.27,23.24,19.62,37.38,24.56,43.45,15.17,119.64-39,148.11,14.93,20.71,39.26-9.31,84.7-40.47,107.44-24.92,18.19-54.09,29.57-80.76,45.1-21.06,12.25-41.33,27.52-53.63,48.93-11.24,19.59-17.75,42.53-34.44,58.55-12.54,12-29.61,18.46-46.81,21-42.15,6.1-84.58-8.83-114.73-38.67-37.75-37.35-40-82.87-49.51-132.12-6.4-33.05-35-59.22-36.33-93.44C104.88-803.7,154.21-839.48,200.7-853.27Z" transform="translate(-106.74 859.76)" style="fill:#204e79"/><path d="M296.75-655a36.46,36.46,0,0,1,30.64,3.23v9.62l-9.28,8.17H299l-4-13.11Z" transform="translate(-106.74 859.76)" style="fill:#15394f"/><path d="M299-753.57l1.54,106.23-4.92,2.6S293-632.9,307-631.7s16.47-11.51,16.47-11.51l-6.26-1.53,8.94-13.15,19.32-30.25h0c4.52,2.51,7.48,2.74,11.57,1.59a37,37,0,0,0,8.55-4.09A15.51,15.51,0,0,0,368.62-708a9,9,0,0,0-3.36-4.07c6-6.87,12.39-13.92,17.36-18.77v-12.74C366-758.68,323.84-790.67,299-753.57Z" transform="translate(-106.74 859.76)" style="fill:#ffc0a4"/><path d="M327.48-740.31c-13.41-5-11.62-7.4-11.62-7.4,13.34,8,30.69,5.13,45.41,4.91.43,0,.93-.05,1.32,0-7.22-.21-9.36,12.2-10.21,17.2a90.86,90.86,0,0,0-1.28,13.58,14.84,14.84,0,0,1,14.26,0q8.65-8.75,17.33-17.46c4.94-5,9.83-9.43,7.05-17.08a10.08,10.08,0,0,0-5.45-6.93c-1.19-.53-3.22-.45-4-1.26-.6-.59-.91-2.53-1.31-3.35a21.87,21.87,0,0,0-2.08-3.36c-4-5.21-10.38-8.19-16.19-10.84-13.34-6.09-27.61-8.94-42-11.38-4.54-.77-9.09-1.58-13.65-2.19-3.57-.48-5.48.76-7.37,3.71a58.22,58.22,0,0,0-4.9,9.14c-1.32,3.18-3.07,6.28-3.47,9.75-.75,6.48,5.79,10.63,10.26,14.11a41.89,41.89,0,0,0,25.86,8.94C326.11-740.26,326.79-740.28,327.48-740.31Z" transform="translate(-106.74 859.76)"/><ellipse cx="221.13" cy="141.84" rx="9.32" ry="10.7" style="fill:#dda08e"/><ellipse cx="200.74" cy="141.35" rx="7.47" ry="9.89" style="fill:#dda08e"/><ellipse cx="220.19" cy="141.35" rx="8.62" ry="9.89" style="fill:#fff"/><ellipse cx="200.26" cy="141.35" rx="6.43" ry="9.89" style="fill:#fff"/><path d="M315-717.44a59.06,59.06,0,0,0-6.08,3.75,41.61,41.61,0,0,0-10.13,9.36,15.41,15.41,0,0,0-2.67,5.34,2.8,2.8,0,0,0-.06,1.22c.41,1.85,3.57,2.14,5.05,2.42a54.36,54.36,0,0,0,11.4.63" transform="translate(-106.74 859.76)" style="fill:#ffc0a4"/><path d="M315-717.31a68.54,68.54,0,0,0-9.09,6.74,32.47,32.47,0,0,0-7.17,8.35,14.19,14.19,0,0,0-1,2.39,9.34,9.34,0,0,0-.29,1.19c-.05.37,0,.57.05.59a2.75,2.75,0,0,0,1.29.64c.75.23,1.6.38,2.61.59,3.52.87,7.26,1.21,11.08,2v.3a32.79,32.79,0,0,1-5.74.89,28.49,28.49,0,0,1-5.9-.19,18,18,0,0,1-3-.55,7,7,0,0,1-1.67-.76,3.69,3.69,0,0,1-1.48-1.83,3.66,3.66,0,0,1,0-2.23,10.63,10.63,0,0,1,.54-1.53,16.36,16.36,0,0,1,1.49-2.7,34.19,34.19,0,0,1,8.27-8.27c1.57-1.13,3.18-2.16,4.82-3.15a51.18,51.18,0,0,1,5.07-2.69Z" transform="translate(-106.74 859.76)" style="fill:#923727"/><ellipse cx="322.83" cy="-716.43" rx="2.94" ry="2.34" transform="translate(904.19 522.8) rotate(-85.38)"/><ellipse cx="307.81" cy="-717.02" rx="2.94" ry="2.34" transform="translate(890.98 507.28) rotate(-85.38)"/><path d="M300.58-734.34l4.5-1.7s3.07,7.66,7.92,11C313-725.06,307.22-726.51,300.58-734.34Z" transform="translate(-106.74 859.76)"/><path d="M334.45-736.72l3.49,3.15a42.36,42.36,0,0,1-19.62,8.51S333.17-732.81,334.45-736.72Z" transform="translate(-106.74 859.76)"/><path d="M350.28-708.51s16.08-5.41,15.83,7.87c0,0-3.41,14.55-18.13,7.32Z" transform="translate(-106.74 859.76)" style="fill:#fea380"/><path d="M334.35-655.51a16,16,0,0,1-4.43-.66,11.63,11.63,0,0,1-7.23-5.52,15.69,15.69,0,0,1-1-2.75,18.58,18.58,0,0,0-.61-1.87,23.18,23.18,0,0,0-5.57-8.58c-3.14-2.9-7.09-4.19-12.79-4.19-2.22,0-4.51.19-6.72.37h-.13l-.58,0a5.42,5.42,0,0,1-4.83-2.76,5.4,5.4,0,0,1,.28-5.25c1.95-3.47,6.92-4.39,11-4.81a34.42,34.42,0,0,1,3.67-.19,39.71,39.71,0,0,1,14.4,2.77A50.35,50.35,0,0,1,339-675.46c3.63,4.05,5.11,8,4.41,11.79a11.75,11.75,0,0,1-4,6.59,7.31,7.31,0,0,1-5,1.57Z" transform="translate(-106.74 859.76)" style="fill:#af0500"/><path d="M300-691.61l.63,3.08s21.36-3,34.64,13.64l2.5-2.39a65.62,65.62,0,0,0-19.48-11.87A37.87,37.87,0,0,0,300-691.61Z" transform="translate(-106.74 859.76)" style="fill:#fff"/><path d="M327.14-664.85a23.75,23.75,0,0,0-9.28-12.3c-4.8-3.34-10-4.25-15.61-5.14-1.25-.2-1.26.13-1.39,1.21-.07.56-.13,1.12-.2,1.68l5.61.48,5.43,1.6,5.19,3.58,3,4.72,2.55,6.7,2.41,3.17,1.71-1.08c1.23-.78,1.39-.88,1.14-2.34A21,21,0,0,0,327.14-664.85Z" transform="translate(-106.74 859.76)" style="fill:#fff"/><path d="M305.42-691.19a39.51,39.51,0,0,1,14.23,2.74,50.19,50.19,0,0,1,18.93,13.32c2.75,3.08,5.08,7.09,4.29,11.37a11.28,11.28,0,0,1-3.83,6.31,7,7,0,0,1-4.69,1.44,15.59,15.59,0,0,1-4.29-.64,11.19,11.19,0,0,1-6.93-5.27c-.73-1.42-1-3.08-1.6-4.58a23.59,23.59,0,0,0-5.69-8.75c-3.78-3.49-8.37-4.33-13.13-4.33-2.28,0-4.6.19-6.89.38l-.54,0a4.9,4.9,0,0,1-4.4-2.52,4.89,4.89,0,0,1,.29-4.74c1.9-3.41,7.12-4.21,10.64-4.57,1.2-.12,2.41-.18,3.61-.18m0-1c-1.24,0-2.49.07-3.71.19-4.24.43-9.36,1.39-11.41,5.07a5.87,5.87,0,0,0-.28,5.74,5.87,5.87,0,0,0,5.26,3c.21,0,.41,0,.62,0H296c2.2-.18,4.48-.36,6.68-.36,5.57,0,9.41,1.25,12.46,4.06a22.67,22.67,0,0,1,5.43,8.39c.23.58.41,1.19.6,1.83a16.49,16.49,0,0,0,1,2.84,12.17,12.17,0,0,0,7.54,5.77,16.83,16.83,0,0,0,4.57.68,7.83,7.83,0,0,0,5.36-1.7,12.23,12.23,0,0,0,4.14-6.87c.72-3.87-.85-8.1-4.53-12.22A50.85,50.85,0,0,0,320-689.38a40.26,40.26,0,0,0-14.59-2.81Z" transform="translate(-106.74 859.76)" style="fill:#500103"/><path d="M382.53-652,380-655.1c-.4-.5-.8-1.46-1.51-1.55h0c-.63-.06-1.53.75-2,1-1.14.68-2.27,1.38-3.43,2-6.81,3.58-14,7.26-21.75,8.11-5.58.61-11.16-.26-16.72-.73-3.57-.3-7.16-.45-10.75-.6v5.67h-5a.72.72,0,0,0-.53-.32.8.8,0,0,0-1.2.13l-.14.19h-.16l.11.07,0,0c-.57.22-1.14.42-1.72.62a3.11,3.11,0,0,1-.52.44q-3.86,2.38-7.92,4.4a2.56,2.56,0,0,1-3.4-1L303-637c-.18-.21-.34-.42-.53-.63-.36-.4-.75-.79-1.14-1.18-.81-.79-1.64-1.56-2.38-2.41a2.68,2.68,0,0,1-.67-1.67,3,3,0,0,1-.51-2.92.85.85,0,0,0-.64-1.17v-.22l-.52,0a30,30,0,0,0-5,.35c-2.86.69-5.77,2.31-8.51,3.41l-9.35,3.73a16.92,16.92,0,0,0-3.47,1.7,10.64,10.64,0,0,0-2.5,2.93c-1,1.39-2,2.78-3,4.15a140.56,140.56,0,0,1-8.88,11c-3.29,3.64-6.91,7.44-11.3,9.76l9.07,6.39,4.34-4.22s9.33-7.94,13.24-17.23c1.39,13.91,2.53,27.83,3.63,41.77,0,5.49.65,11,.79,16.53.07,3,0,5.9,0,8.86a5.59,5.59,0,0,0,.18,2,4.32,4.32,0,0,0,3.07,2.54c2.89.83,6.15.94,9.12,1.28,3.28.38,6.57.72,9.86,1q9.87.95,19.75,1.64c2.31.17,4.62.33,6.94.46,2,.12,4.65.7,6.59,0s2.3-3.2,2.28-4.91c-.05-4,1.2-8.11,2.11-12,1-4.43,2.21-8.87,3.46-13.24l4.9-19.5,4.8-19.08q1.8-7.11,3.58-14.2l1.23-4.89s24.76-5.61,26.8-7.78l5.62-2.94Z" transform="translate(-106.74 859.76)" style="fill:#e2f4f3"/><path d="M258.43-604.82a6.49,6.49,0,0,0-.77-1.86,21,21,0,0,0-5.14-5.2c-.64-.5-1.29-1-1.94-1.45a12.3,12.3,0,0,0-1.89-1.24,2.56,2.56,0,0,0-1.31-.19,4.88,4.88,0,0,0-.9.21,1,1,0,0,0-.34.15c-.31.24-.31.74-.39,1.09-.11.51-.23,1-.35,1.52a.63.63,0,0,1-.19.39c-.36.31-1.3,0-1.74,0a3.89,3.89,0,0,0-1.79.23,3,3,0,0,0-1.61,2.1c0,.17,0,.35-.07.52a2.49,2.49,0,0,1,.29.11h0l.06.06,0,0a.49.49,0,0,1,.33.33c.49,1.61,1.29,3.11,1.88,4.69.15.4-.37.75-.7.58a6.87,6.87,0,0,0,.51.73,3.81,3.81,0,0,0,.39.42l.11.08a.46.46,0,0,1,.49,0,.52.52,0,0,1,.17.69,1.42,1.42,0,0,1-.22.21,20.25,20.25,0,0,0,1.45,1.48,8.39,8.39,0,0,0,5.34,2.57c1.64,0,3.54-1.08,3.2-3-.06-.39-.12-.8.37-.89a2,2,0,0,1,.59,0,8.06,8.06,0,0,0,2.5-.06,2,2,0,0,0,1.41-.81,3.78,3.78,0,0,0,.35-1.6A6.17,6.17,0,0,0,258.43-604.82Z" transform="translate(-106.74 859.76)" style="fill:#387aa3"/><path d="M258.66-604.87a6.34,6.34,0,0,0-1-2.16,19,19,0,0,0-1.29-1.53c-.25-.28-.5-.56-.76-.83s-.46-.35-.68-.52l-.27-.24-.15-.14h-.06a2,2,0,0,1,.23.27,2.11,2.11,0,0,1,.44.5,12,12,0,0,1,.92,1.09c.44.55.89,1.1,1.28,1.69a6.16,6.16,0,0,1,1,3.87v.17a3,3,0,0,1-.31,1.32,1.77,1.77,0,0,1-1.23.7,8,8,0,0,1-2.43.05,2.07,2.07,0,0,0-.66,0,.68.68,0,0,0-.49.28,1.16,1.16,0,0,0-.08.89,1.9,1.9,0,0,1-.43,1.63,3.38,3.38,0,0,1-2.53,1.05c-1.64,0-3.33-.83-5.17-2.51-.19-.17-.35-.35-.53-.53.27.5.55,1,.85,1.46a7.73,7.73,0,0,0,4.85,2.08h0a3.9,3.9,0,0,0,2.88-1.22,2.41,2.41,0,0,0,.54-2.05.88.88,0,0,1,0-.51.2.2,0,0,1,.16-.08,1.47,1.47,0,0,1,.51,0,8.63,8.63,0,0,0,2.59-.06,2.21,2.21,0,0,0,1.57-.92,3.65,3.65,0,0,0,.38-1.55v-.17A6,6,0,0,0,258.66-604.87Z" transform="translate(-106.74 859.76)" style="fill:#15394f"/><polygon points="210.43 243.35 225.05 243.67 225.05 246.41 210.43 245.97 210.43 243.35" style="fill:#387aa3"/><path d="M333.48-554c-.05-4,1.2-8.11,2.11-12,1-4.43,2.21-8.87,3.46-13.24q2.44-9.75,4.9-19.5l4.8-19.08q1.8-7.11,3.58-14.2l1.23-4.89s24.76-5.61,26.8-7.78l.7-.37-2.47-3.87-29.51,11.26-14.8,61.11-2.49,13.44-.59,14C333-549.81,333.5-552.31,333.48-554Z" transform="translate(-106.74 859.76)" style="fill:#6aa3bf"/><path d="M247.23-604.81s-3.37-5-7.2-3.81a16.37,16.37,0,0,0,1.58,5.43l.59.84c.46.66.88,1.37,1.41,2,.36.43.83.8,1.16,1.26a12.52,12.52,0,0,1,1.4,1,9.89,9.89,0,0,0,1.65,1.24c.77.4,2.12,1.08,2.94.53a.37.37,0,0,1,.25-.08C251.22-598,250.82-600.9,247.23-604.81Z" transform="translate(-106.74 859.76)" style="fill:#15394f"/><path d="M386.28-661.63a2.8,2.8,0,0,0-3.44-.11,6.62,6.62,0,0,0-2.06,2.18,1,1,0,0,1-.36.4.83.83,0,0,1-.38.07c-1.56.09-3.1.28-4.2,1.52-1,1,0,3.17.28,4.4a18.59,18.59,0,0,0,3.09,7.64c1.86,2.43,6.07,3.62,8.75,1.72,1.52-1.08,2-1.65,4-1.72a2.29,2.29,0,0,0,2.18-2.23c.48-2.92-1.29-5.36-2.95-7.57l-3.72-4.91A9.41,9.41,0,0,0,386.28-661.63Z" transform="translate(-106.74 859.76)" style="fill:#387aa3"/><path d="M392.63-653.95H392a8.64,8.64,0,0,1,1.8,6.05c-.15.92-.6,2-1.92,2.07a5.16,5.16,0,0,0-3.53,1.42l-.52.39c-2.56,1.89-6.54.63-8.27-1.71l0,0a13.21,13.21,0,0,1-1.68-1.91,14.1,14.1,0,0,0,1.32,2.27A7.42,7.42,0,0,0,385-642.6a5.28,5.28,0,0,0,3.2-1l.53-.4a4.69,4.69,0,0,1,3.26-1.32c1.29,0,2.14-.94,2.38-2.49A8.75,8.75,0,0,0,392.63-653.95Z" transform="translate(-106.74 859.76)" style="fill:#15394f"/><path d="M394.23-652.08a2.29,2.29,0,0,1-.17-.62,4.25,4.25,0,0,0-.57-1l-.1-.2a.46.46,0,0,1-.61-.07c-.49-.64-.91-1.32-1.42-2s-.9-1.17-1.34-1.77c-.78-1.06-2-1.72-2.69-2.82a2.23,2.23,0,0,0-.21.88,6.17,6.17,0,0,0,1,2.64c.32.65.58,1.31.86,2a12.28,12.28,0,0,0,1.79,3,.46.46,0,0,1,.17.17s0,0,0,.05l.23.28a.46.46,0,0,1,.13.27l0,0c.19.23.4.45.61.66l.33.29a.53.53,0,0,0,.11.09l.18.13a3.17,3.17,0,0,0,.36.23,1,1,0,0,0,.18.1h0l.06,0,.31.08.12,0h.06l.16,0c-.14,0,0,0,.07,0l0,0a.5.5,0,0,0,.07-.08.27.27,0,0,0,.06-.1.73.73,0,0,0,.05-.12,1,1,0,0,0,0-.17.3.3,0,0,0,0-.1,6.43,6.43,0,0,0,0-1C394.28-651.53,394.25-651.8,394.23-652.08Z" transform="translate(-106.74 859.76)" style="fill:#15394f"/><path d="M298.19-591.45l14.73-8-6-30.25,2.39-2.17c-.46-1.74-.9-3.46-1.23-5.23-.88,0-1.76-.07-2.59-.06-.43,0-.85,0-1.27,0a10.55,10.55,0,0,1-1.14-.08c-.17.55-.33,1.12-.45,1.68s-.18.92-.28,1.38c0,.3-.07.45-.07.47l-.09.57a5.65,5.65,0,0,1-.13.62l.82,1.16,1.15,1.65-1.88,28.51-15.74,10.72,13.36,30,14.9,1.53,5.1-11.83Z" transform="translate(-106.74 859.76)" style="fill:#002952"/><path d="M391-651.93a14.28,14.28,0,0,1-2.58-4.57c-.21-.5-.41-1-.63-1.47l-.27-.6,19.06-9.84c.43-.25,43.29-24.66,65.55-53.47l11.05-16.53-.18-.14a2.83,2.83,0,0,1-.74-.78l-.49-.62c-3-3.86-4.7-7.56-5-11a8.52,8.52,0,0,1,2-6.65,11.67,11.67,0,0,1,3.77-2.68,7,7,0,0,1,2.93-.74h1.05l1.7,0c.61,0,.72,0,.77-.21a13.1,13.1,0,0,1,2.7-5.81,6.63,6.63,0,0,1,5-2.16,9.36,9.36,0,0,1,2.66.41l.84,1.27.47.48.16-.08c.18-.09.37-.19.55-.3a6.06,6.06,0,0,1,1.16-.55,4.46,4.46,0,0,1,1.12-.12l1.08,0a5.53,5.53,0,0,1,2.45.45c.62.29,1.3.64,1.47,1.24l.36,1.22.13,0a16.46,16.46,0,0,0,1.65.31l.26,0,.32.07a3.54,3.54,0,0,0,.45.08l.32,0a1.65,1.65,0,0,1,.89.23,4.56,4.56,0,0,1,.84.75,6.58,6.58,0,0,1,.84,1.2,9.91,9.91,0,0,0,.72,1.06,6.37,6.37,0,0,0,1.46,1.23,5.91,5.91,0,0,1,1,1.09c.48.53,1.09.93,1.54,1.49a7.3,7.3,0,0,1,1.05,1.84,7.31,7.31,0,0,1,0,5.29,22.19,22.19,0,0,1-1.78,3.71,42.93,42.93,0,0,1-3.47,5.13,26,26,0,0,1-7.46,6.81,14.55,14.55,0,0,1-7.17,2,13.35,13.35,0,0,1-2.95-.34l-.16,0-.1.14c-1.35,1.84-2.76,3.6-4,5.09-3.11,3.82-6.42,7.63-10.12,11.63-5,5.42-10.35,10.74-15.85,15.8a269.15,269.15,0,0,1-21.1,17.58,238.62,238.62,0,0,1-25.89,16.95c-4.82,2.71-9.73,5.23-14.6,7.49-2.55,1.18-5.13,2.31-7.69,3.36-1.3.54-2.62,1.06-3.93,1.57A21.43,21.43,0,0,0,391-651.93Z" transform="translate(-106.74 859.76)" style="fill:#ffc0a4"/><path d="M521.18-753.92c-.51-2.41-2.12-4.11-3.73-5.86L514-763.5a4.14,4.14,0,0,0-1.93-1.41,15,15,0,0,1-2-.21c-.89-.33-1.3-1.32-1.95-2a4.63,4.63,0,0,0-3.61-1.26,13.38,13.38,0,0,0-3.81.94c-1.71-2.28-5.32-2.46-7.71-.91s-3.72,4.33-4.29,7.12c-4.28-.5-9.05,1.18-11.12,5-1.59,2.9-1.34,6.52-.13,9.6a34.18,34.18,0,0,0,5.32,8.33,53,53,0,0,0-4.33,7.44l5-7.51c-2.21-2.73-4.46-5.52-5.64-8.83s-1.13-7.26,1-10c2-2.57,5.49-3.67,8.74-3.45a2.35,2.35,0,0,0,1.09-.08c.68-.29.88-1.14,1.06-1.86a8.35,8.35,0,0,1,4.3-5.7,5.37,5.37,0,0,1,6.59,1.59,8.89,8.89,0,0,1,4.79-1.05,3.89,3.89,0,0,1,3.49,3c2.52-.48,4.76,1.52,6.54,3.36a32.29,32.29,0,0,1,3.69,4.31,13.13,13.13,0,0,1,1.3,2.46,6.47,6.47,0,0,1,.34,2.73c-.07,1.84-1.37,3.61-2.25,5.15a43.25,43.25,0,0,1-3.45,5.1,25.75,25.75,0,0,1-7.39,6.74,14.14,14.14,0,0,1-7,2,12.81,12.81,0,0,1-2.89-.33l-.32-.08-.2.27,0,0c-1.31,1.78-2.73,3.54-3.94,5-3.1,3.82-6.41,7.62-10.11,11.62-5,5.42-10.34,10.73-15.83,15.79a272.69,272.69,0,0,1-21.08,17.56,238.07,238.07,0,0,1-25.86,16.93c-4.82,2.71-9.72,5.23-14.59,7.48-2.54,1.18-5.12,2.31-7.67,3.36-1.3.54-2.63,1.07-3.93,1.57a21.89,21.89,0,0,0-2.89,1.33c-.06.15-.11.3-.16.45.24-.1.48-.23.72-.33l1.12-.46.83-.29c.3-.13.51-.22.56-.23,1.32-.51,2.63-1,3.94-1.58,2.59-1.06,5.15-2.19,7.7-3.37,5-2.3,9.84-4.81,14.61-7.49a237.12,237.12,0,0,0,25.92-17,271.08,271.08,0,0,0,21.12-17.59q8.24-7.61,15.86-15.82c3.49-3.78,6.89-7.65,10.13-11.64,1.35-1.66,2.69-3.33,3.95-5.06l0-.05a12.8,12.8,0,0,0,3,.35,14.68,14.68,0,0,0,7.29-2,26.71,26.71,0,0,0,7.54-6.87,44.82,44.82,0,0,0,3.48-5.16,22,22,0,0,0,1.81-3.64,8.94,8.94,0,0,0,.46-1.85A5.42,5.42,0,0,0,521.18-753.92Z" transform="translate(-106.74 859.76)" style="fill:#923727"/><path d="M517.23-759.69a8.28,8.28,0,0,0-4,.42,37.64,37.64,0,0,0-4,1.31,12.39,12.39,0,0,0-3.48,2.18,10.4,10.4,0,0,0-2.37,3.28,10.84,10.84,0,0,0-1,3.9c0,.33,0,.68,0,1a1.06,1.06,0,0,0,.25.65,2.34,2.34,0,0,0,1.54.66,6.88,6.88,0,0,0,3.84-.64,6.24,6.24,0,0,0,2.76-2.89l.09,0a5.82,5.82,0,0,1-2.5,3.47,6,6,0,0,1-2.06.83,7.86,7.86,0,0,1-2.23.19,3.3,3.3,0,0,1-2.24-1,2.26,2.26,0,0,1-.35-.61,2.39,2.39,0,0,1-.11-.66,10.15,10.15,0,0,1,.05-1.12,11.46,11.46,0,0,1,1.25-4.17,11.68,11.68,0,0,1,6.37-5.57,39.53,39.53,0,0,1,4-1.35,9.62,9.62,0,0,1,4.28-.51Z" transform="translate(-106.74 859.76)" style="fill:#923727"/><path d="M509.06-765.15c.17.22.09.16.09.18l0,0-.07.07-.14.12-.29.24L508-764q-.6.45-1.23.87c-.83.56-1.69,1.08-2.56,1.57-1.71,1-3.52,1.93-4.64,3.46a9.43,9.43,0,0,0-1.54,5.33,5.72,5.72,0,0,0,.56,2.68,4.37,4.37,0,0,0,2,2l0,.09a4,4,0,0,1-2.56-1.69,5.6,5.6,0,0,1-1-3,8.76,8.76,0,0,1,1.91-5.86c1.38-1.64,3.3-2.46,5-3.39a23.8,23.8,0,0,0,2.49-1.58c.41-.28.8-.58,1.19-.88l.59-.45.29-.22.15-.12.07-.06,0,0s0-.08.17.13Z" transform="translate(-106.74 859.76)" style="fill:#923727"/><path d="M500.92-766.84c-1.14,1.54-2.88,2.24-4.35,3.14A8.49,8.49,0,0,0,493.2-760a9.79,9.79,0,0,0-.8,4.88,7.73,7.73,0,0,0,.57,2.4,2.82,2.82,0,0,0,1.71,1.68v.1a2.24,2.24,0,0,1-1.33-.41,3.8,3.8,0,0,1-1-1,6.68,6.68,0,0,1-.95-2.63,8.54,8.54,0,0,1,1.08-5.36,9.5,9.5,0,0,1,3.82-3.8c1.52-.9,3.22-1.61,4.1-3Z" transform="translate(-106.74 859.76)" style="fill:#923727"/><path d="M488.27-761.24a7.3,7.3,0,0,1,2.54.83,5,5,0,0,1,2.57,3,3.14,3.14,0,0,1-1.35,3.51,4,4,0,0,1-1.37.39,6.25,6.25,0,0,1-4.74-1.11c1,1,2.37,1.51,3.54,2.31a7.34,7.34,0,0,1,3,4.25,7.34,7.34,0,0,1-.63,5.16" transform="translate(-106.74 859.76)" style="fill:#ffc0a4"/><path d="M488.31-761.52a6.65,6.65,0,0,1,4.11,1.73,5.07,5.07,0,0,1,1.3,1.94,3.7,3.7,0,0,1,0,2.37,3.11,3.11,0,0,1-1.52,1.78,5.34,5.34,0,0,1-2.2.39,6.32,6.32,0,0,1-4.09-1.26h0l.08-.09c1.15.55,2.15,1,3.33,1.61a7.21,7.21,0,0,1,2.79,2.77,7.33,7.33,0,0,1,.94,3.79,6.79,6.79,0,0,1-1.16,3.61l-.09,0a8.09,8.09,0,0,0,.5-3.55,7,7,0,0,0-1.1-3.27,7.73,7.73,0,0,0-2.42-2.41c-.49-.32-1-.62-1.58-1a3.39,3.39,0,0,1-1.29-1.46l-.09-.21.17.13h0a5.75,5.75,0,0,0,4,1,4.5,4.5,0,0,0,2-.54,2.54,2.54,0,0,0,1-1.55,3.59,3.59,0,0,0-1.16-3.45,7.4,7.4,0,0,0-3.58-1.81Z" transform="translate(-106.74 859.76)" style="fill:#923727"/><path d="M248.64-603.22c-.12-.21-.23-.43-.37-.63-.38-.55-.83-1.06-1.25-1.59a6.09,6.09,0,0,0-2-1.91c-3.27,2.24-6.65,4.33-10.11,6.25-5.71,3.16-13.62,7.83-19.51,2.58a11,11,0,0,1-1.15-1.21c-3.31-4.17-3-10.55-1.37-15.36,0,0,10.31-30.09,18.35-36.7.5-.09,1-.18,1.5-.29q3.54-.78,7-1.89a16.61,16.61,0,0,0,5.25-2.5,14.7,14.7,0,0,0,4.07-5.74,17.37,17.37,0,0,0,1.65-8.77,11.88,11.88,0,0,0-.33-3c-.3-.71-1-.9-1.56-1.52-.16-.18-.32-.37-.49-.55a.52.52,0,0,1-.63-.06,6.53,6.53,0,0,1-1.1-1.19,4.22,4.22,0,0,1-.71-1.46v0a.43.43,0,0,1-.11-.12,10,10,0,0,1-.54-1.68,11.34,11.34,0,0,0-.57-1.67,10,10,0,0,0-1.62-3.06l-.05-.08a7.52,7.52,0,0,0-.78-.45.4.4,0,0,1-.24-.45,16.22,16.22,0,0,0-2.08-.52l-.29.06-.1,0a.46.46,0,0,1-.48.52,64.9,64.9,0,0,0-6.53.33,18.25,18.25,0,0,0-3.21.37,19.84,19.84,0,0,0-2.82.94,30.82,30.82,0,0,1-5,1.26,33.62,33.62,0,0,0-4,1.48,7.59,7.59,0,0,0-2.87,2.64,7.34,7.34,0,0,0-1.12,4,30.76,30.76,0,0,0,1.34,9.81,17.56,17.56,0,0,0,3.66,6.88l1.25,1.39-.18-.06c-.6-.21-4.87,7.69-5.17,8.23a93.07,93.07,0,0,0-8.8,21.69c-2,7.62-3.28,16.21-2.44,24.07.71,6.65,4.44,12,10.88,14.22,6.29,2.17,12.06-.13,17.8-2.62s12.08-5.39,16.6-9.91a2.29,2.29,0,0,1,.31-.18,3,3,0,0,0,.6-.52s0,0,0,0,0,0,0-.05A2.89,2.89,0,0,1,248.64-603.22Z" transform="translate(-106.74 859.76)" style="fill:#ffc0a4"/><path d="M249.21-602.31l-.18-.2a3,3,0,0,1-.79.64l-.12.07c-4.38,4.39-10.3,7.16-16.48,9.84s-11.59,4.65-17.53,2.6a15.25,15.25,0,0,1-7.31-5.24.48.48,0,0,1-.18-.17,1,1,0,0,0-.11-.17.39.39,0,0,1-.19-.29c-.34-.45-.75-.84-1-1.31a16,16,0,0,1-1-2.1c-.33-.76-.7-1.49-1.08-2.23a.16.16,0,0,0,0-.07v.31a16.18,16.18,0,0,0,10.7,12,16.14,16.14,0,0,0,5.3.88c4.69,0,9.06-1.89,12.77-3.5,6-2.6,12.2-5.5,16.67-10a3.41,3.41,0,0,0,.94-.75Z" transform="translate(-106.74 859.76)" style="fill:#923727"/><path d="M209-678.38l23.37-3.23c.12,0,11.13-1.24,13.36-4.36l.07-.11h6l4.79,5.18-34.49,19.25Z" transform="translate(-106.74 859.76)" style="fill:#fff"/><path d="M251.64-685.83l4.5,4.86-34,19-12.65-16.21,22.94-3.18s11.2-1.21,13.52-4.46h5.72m.21-.5h-6.19l-.15.21c-1.79,2.52-10.11,3.93-13.17,4.26l-23,3.17-.86.12.53.69,12.66,16.21.26.34.38-.21,34-19,.56-.31-.44-.47-4.5-4.86-.15-.16Z" transform="translate(-106.74 859.76)" style="fill:#919191"/><polygon points="102.61 181.57 107.65 197.08 114.67 197.78 113.51 181.57 102.61 181.57" style="fill:#3e82ba"/><path d="M253-679.17l-7.44-6.31,0,0c-1.17-2.71-1.47-3.41-1.55-3.62h0a2.42,2.42,0,0,1-.12-.9v-.22a2.54,2.54,0,0,1,0-.39v-.47h7.81V-699H260v-9.25l.3.06a12.23,12.23,0,0,1,1.92.54,11.27,11.27,0,0,1,3.69,2.3l7.27,6.75v.11c-.18,7.11-3.14,13.17-7.92,16.18-1.25.8-2.54,1.5-4,2.28a23.28,23.28,0,0,1-4.91.9H253Z" transform="translate(-106.74 859.76)" style="fill:#fff"/><path d="M260.22-708a12.36,12.36,0,0,1,1.89.53,11.09,11.09,0,0,1,3.6,2.25l7.19,6.67c-.16,6.07-2.49,12.63-7.8,16-1.28.81-2.62,1.54-4,2.26a23.49,23.49,0,0,1-4.82.88h-3.26l-7.32-6.21-1.56-3.61a3.26,3.26,0,0,1-.11-1c0-.2,0-.4,0-.6h7.81v-7.92h8.34V-708m-.5-.6v9.3h-8.34v7.92h-7.81v.71a2.8,2.8,0,0,0,0,.41,1.7,1.7,0,0,0,0,.22,2.64,2.64,0,0,0,.14,1l1.56,3.61.05.1.09.08,7.32,6.21.14.12h3.44a24.76,24.76,0,0,0,5-.89l.05,0,0,0c1.44-.78,2.74-1.49,4-2.28,4.84-3.07,7.84-9.2,8-16.4v-.22l-.17-.16-2.36-2.19-4.83-4.47a11.52,11.52,0,0,0-3.77-2.36,13.06,13.06,0,0,0-2-.55l-.6-.11Z" transform="translate(-106.74 859.76)" style="fill:#919191"/><ellipse cx="253.99" cy="-696.96" rx="13.44" ry="6.19" transform="translate(504.44 812.94) rotate(-48.81)" style="fill:#3e82ba"/><path d="M222-685.75c1.21-.53,2.14-1.6,3.39-2a5.72,5.72,0,0,1,2.85-.13,10.45,10.45,0,0,1,2.78.87,14.62,14.62,0,0,1,3.12,2,4.78,4.78,0,0,1,.81.81,5.29,5.29,0,0,1,.71,1.65,17.43,17.43,0,0,1,.83,3.55,5.85,5.85,0,0,1-.68,3.54,2.85,2.85,0,0,1-.65.78,3.19,3.19,0,0,1-.92.51,1.69,1.69,0,0,1-1.88-.18" transform="translate(-106.74 859.76)" style="fill:none"/><path d="M249.56-673.63a.52.52,0,0,1,.25-.31.57.57,0,0,1,.34,0h.2l.41,0h0a10.39,10.39,0,0,0-3.36-5.49,10.48,10.48,0,0,0-6-2.46,2.77,2.77,0,0,0-1.28.12,2.27,2.27,0,0,0-1,2.88,8.8,8.8,0,0,0,2,2.7,18.59,18.59,0,0,1,2.85,4.23,1.12,1.12,0,0,1,.16.66,1.2,1.2,0,0,1-.4.62q-.56.56-1.14,1.08a1.43,1.43,0,0,1-.44.3,1.63,1.63,0,0,1-.73.07,9,9,0,0,0-8.59,6l16.72-10A.61.61,0,0,1,249.56-673.63Z" transform="translate(-106.74 859.76)" style="fill:#ffc0a4"/><path d="M232.61-663.39a9.23,9.23,0,0,1,8-6.12c.44,0,.93,0,1.29,0s.63-.41,1-.69.66-.59.92-.89.17-.61,0-1a18.49,18.49,0,0,0-2.9-4.27,10,10,0,0,1-1.62-2.08,2.91,2.91,0,0,1-.1-2.62,1.86,1.86,0,0,1,1-.9,3.17,3.17,0,0,1,1.33-.09,10.26,10.26,0,0,1,2.57.56,10.38,10.38,0,0,1,6.69,7.48l-.25.06c-.3.05-.28,0-.29,0l0-.07,0-.15a2.63,2.63,0,0,1-.09-.3l-.15-.6a5.19,5.19,0,0,0-.5-1.13,9.9,9.9,0,0,0-1.44-2,10,10,0,0,0-4.09-2.72,10.06,10.06,0,0,0-2.43-.54c-.84-.11-1.47,0-1.78.69a2.35,2.35,0,0,0,.08,2.11,10.12,10.12,0,0,0,1.53,2,18.25,18.25,0,0,1,3,4.4,2.36,2.36,0,0,1,.27.72,1.1,1.1,0,0,1-.29.88c-.34.38-.65.62-1,.94l-.49.44a1.45,1.45,0,0,1-.74.38c-.57,0-.91,0-1.34,0a8.71,8.71,0,0,0-7.59,5.75Z" transform="translate(-106.74 859.76)" style="fill:#923727"/><path d="M236.52-687a3.4,3.4,0,0,1,3.14-2.2c3.74-.11,6.15,4.7,6.31,7.87a2.25,2.25,0,0,1-.25,1.36,1.89,1.89,0,0,1-.9.7,4.25,4.25,0,0,1-4.09-.68,9,9,0,0,1-2.55-3.43" transform="translate(-106.74 859.76)" style="fill:#ffc0a4;stroke:#923727;stroke-miterlimit:10;stroke-width:0.5px"/><path d="M226.67-686.7a3,3,0,0,1,1.73-.8c4.4-.92,9.13-1.8,11.88,2.64a10.12,10.12,0,0,1,1.17,5.66,6.17,6.17,0,0,1-.47,2.52,3,3,0,0,1-1.87,1.68,4.42,4.42,0,0,1-1.09.09,1.85,1.85,0,0,1-.81-.14,1.52,1.52,0,0,1-.52-.52,4.35,4.35,0,0,1-.69-1.61" transform="translate(-106.74 859.76)" style="fill:#ffc0a4;stroke:#923727;stroke-miterlimit:10;stroke-width:0.5px"/><path d="M220.59-684.94a20.77,20.77,0,0,0,4.4-1.8,8,8,0,0,1,4.89-.46,11.81,11.81,0,0,1,5.28,2.28c1.9,1.61,2.62,5.09,2.5,7.45a4.91,4.91,0,0,1-1.67,3.65,3.1,3.1,0,0,1-3.84.07.24.24,0,0,1,.26-.14" transform="translate(-106.74 859.76)" style="fill:#ffc0a4;stroke:#923727;stroke-miterlimit:10;stroke-width:0.5px"/><path d="M213.12-679.06c-.1-2.33,2.87-4.25,4.81-5.18a13.57,13.57,0,0,1,9.45-.74,7.07,7.07,0,0,1,4.74,4.2,16.67,16.67,0,0,1,1,4.62,6.1,6.1,0,0,1-.07,2.41,1.56,1.56,0,0,1-.28.58,1.69,1.69,0,0,1-1.06.57,3.56,3.56,0,0,1-2.92-1,9.56,9.56,0,0,1-1.79-2.49l-1.87-3.28a3.25,3.25,0,0,0-.7-.95,2.52,2.52,0,0,0-2.06-.43,7.32,7.32,0,0,0-2,.79" transform="translate(-106.74 859.76)" style="fill:#ffc0a4;stroke:#923727;stroke-miterlimit:10;stroke-width:0.5px"/><path d="M248.49-690a5,5,0,0,1-2.15-.47,36.26,36.26,0,0,1-4.18-2.49c-.75-.49-1.5-1-2.26-1.43-2.38-1.42-4.48-2.63-6.43-3.69A191,191,0,0,0,212-708.27a109.75,109.75,0,0,0-25.89-7.11l-.46-.06,38.61-45.22.22.71q.24.78.51,1.56c.32.94.65,1.86,1,2.79.48,1.29,1,2.56,1.49,3.84.64,1.56,1.31,3.14,2,4.7.81,1.8,1.66,3.62,2.54,5.39,1,2,2,4,3.07,5.91,1.17,2.12,2.4,4.22,3.65,6.23,1.36,2.21,2.78,4.35,4.22,6.39,1.55,2.2,3.17,4.34,4.82,6.36s3.58,4.23,5.43,6.15,3.81,3.72,5.51,5.27a3.2,3.2,0,0,0,.27.22,2.71,2.71,0,0,1,.82.93,5.91,5.91,0,0,1,.43,3.05,12.82,12.82,0,0,1-3.91,7.11c-1.94,1.95-5,4-7.78,4Z" transform="translate(-106.74 859.76)" style="fill:#fff"/><path d="M224.1-760.15l.09.28c.16.52.34,1,.51,1.56.32.94.65,1.87,1,2.8.47,1.29,1,2.57,1.49,3.84q1,2.37,2,4.71,1.22,2.73,2.54,5.4,1.47,3,3.09,5.92c1.16,2.11,2.37,4.2,3.64,6.25s2.76,4.3,4.23,6.39,3.15,4.31,4.83,6.38,3.55,4.19,5.45,6.17,3.63,3.56,5.52,5.27c.34.31.85.63,1,1.06a5.75,5.75,0,0,1,.41,2.93,12.6,12.6,0,0,1-3.83,7c-1.77,1.76-4.79,4-7.61,4a4.73,4.73,0,0,1-2-.45c-2.22-1.06-4.3-2.64-6.42-3.91s-4.27-2.51-6.44-3.69A189.12,189.12,0,0,0,212-708.5a110.38,110.38,0,0,0-25.95-7.13l38-44.52m.22-1-.6.7-38,44.52-.59.7.91.12a109.21,109.21,0,0,1,25.82,7.1,191.28,191.28,0,0,1,21.5,10.14c2,1.07,4.06,2.28,6.42,3.69.75.45,1.52,1,2.26,1.43a35.07,35.07,0,0,0,4.21,2.5,5.18,5.18,0,0,0,2.25.5c3.58,0,7-3.14,8-4.1a13.1,13.1,0,0,0,4-7.26,6.32,6.32,0,0,0-.45-3.18,2.7,2.7,0,0,0-.9-1l-.25-.22c-1.71-1.54-3.67-3.35-5.5-5.25s-3.66-4-5.42-6.14c-1.64-2-3.25-4.14-4.81-6.34-1.43-2-2.85-4.19-4.21-6.38-1.25-2-2.47-4.1-3.64-6.22-1.05-1.92-2.09-3.9-3.07-5.9-.87-1.76-1.72-3.58-2.53-5.38-.7-1.56-1.37-3.14-2-4.7-.52-1.29-1-2.58-1.48-3.83-.37-1-.69-1.89-1-2.78-.18-.51-.35-1-.51-1.55l-.09-.27-.26-.88Z" transform="translate(-106.74 859.76)" style="fill:#919191"/><path d="M182.61-713.25c-6.48,0-12-2.1-16-6.08-10.5-10.49-7.06-31,7.67-45.74,8.61-8.61,19.74-13.75,29.77-13.75,6.48,0,12,2.1,16,6.08,10.5,10.5,7.06,31-7.67,45.75C203.77-718.38,192.64-713.25,182.61-713.25Z" transform="translate(-106.74 859.76)" style="fill:url(#a)"/><path d="M200.77-747.08l-.1.05a8.49,8.49,0,0,0-1.12.33h0l-.06,0-.15.07a2,2,0,0,0-.25.14l-.12.07,0,0a1.12,1.12,0,0,0-.2.18.55.55,0,0,1-.76,0l-.05-.07a30,30,0,0,0-3.41,4.46,5.22,5.22,0,0,0,0,.88,2.34,2.34,0,0,0,.09.38.49.49,0,0,1-.06.39l12.37,19.74,14.94-19.42Z" transform="translate(-106.74 859.76)" style="fill:#dbdbdb"/><ellipse cx="197.85" cy="-743.32" rx="5.01" ry="2.38" transform="translate(510.32 761.37) rotate(-47.93)" style="fill:#204e79"/><path d="M204.07-779.89v2.14h0c6.18,0,11.44,2,15.21,5.77,10.08,10.08,6.64,29.92-7.67,44.23-8.41,8.41-19.26,13.43-29,13.43-6.19,0-11.45-2-15.22-5.76-10.08-10.08-6.64-29.93,7.67-44.24,8.41-8.41,19.26-13.43,29-13.43v-2.14m0,0c-10,0-21.35,4.88-30.53,14.06-15.17,15.17-18.6,36.33-7.67,47.26,4.32,4.32,10.23,6.4,16.74,6.4,10,0,21.35-4.89,30.53-14.07,15.17-15.17,18.6-36.33,7.67-47.26-4.32-4.32-10.23-6.39-16.74-6.39Z" transform="translate(-106.74 859.76)" style="fill:#3e82ba"/><path d="M250.47-674.19a50.74,50.74,0,0,1,.29,5.91" transform="translate(-106.74 859.76)" style="fill:#923727"/><path d="M251.15-669.71c0-.25,0-.5,0-.75a31.3,31.3,0,0,0-.39-3.76l-.5.07s.1,2.17.11,2.34c0,.78,0,1.56,0,2.34,0,.41-.06.82-.1,1.23s0,.74-.07,1.08a20,20,0,0,1-1.5,4.79,14.16,14.16,0,0,1-4,5.61,16.41,16.41,0,0,1-5.14,2.43,71,71,0,0,1-6.94,1.88c-.49.11-1,.21-1.48.29l-.1,0-.08.06c-7.8,6.42-17.8,34.82-18.46,36.87-1.61,4.7-2.08,11.3,1.43,15.71.06.07.13.14.19.22s.35.23.52.36c.39.31.75.63,1.16.91.17.11.36.2.54.31a4.54,4.54,0,0,1-.79-.79,11,11,0,0,1-1.25-1.78c-3.07-4.17-2.6-10.29-1.09-14.7.1-.29,10.24-29.83,18.15-36.47.48-.08,1-.17,1.42-.28a72.38,72.38,0,0,0,7-1.89,17.14,17.14,0,0,0,5.37-2.56,14.88,14.88,0,0,0,4.19-5.89,22.7,22.7,0,0,0,1.57-4.6A13,13,0,0,0,251.15-669.71Z" transform="translate(-106.74 859.76)" style="fill:#923727"/><path d="M295-644.41s4.53,13.31,8,13.1l1-4.56s-3.12-.53-8.27-8.87" transform="translate(-106.74 859.76)" style="fill:#0c273d"/><path d="M318.6-640.93s-7.86,11.65-11.11,10.55l.22-4.67s3.15.31,10.31-6.39" transform="translate(-106.74 859.76)" style="fill:#0c273d"/><path d="M307.94-628.92a1,1,0,0,0,.12-.23,8.66,8.66,0,0,1,.81-2.06,4.41,4.41,0,0,1,.95-1c.27-.2.65-.24.9-.46a1.27,1.27,0,0,0,.35-.91,3.64,3.64,0,0,0-.39-1.89,9,9,0,0,0-1-1.33c-.46-.6-.91-1.45-1.65-1.74a4.15,4.15,0,0,0-1.69-.1c-1.22.06-2.7-.35-3.75.48a5.53,5.53,0,0,0-1.53,3,5.42,5.42,0,0,0,.16,3.49,8.13,8.13,0,0,0,1.12,1.73,5.29,5.29,0,0,0,1.25,1.33,4.91,4.91,0,0,0,3.36.24A1.58,1.58,0,0,0,307.94-628.92Z" transform="translate(-106.74 859.76)" style="fill:#002952"/><path d="M313.43-641.49l7.06,9.79,9.79-12.17-2.89-7.92S320.92-642.34,313.43-641.49Z" transform="translate(-106.74 859.76)" style="fill:#387aa3"/><path d="M293-635.87s-2.55-15.41,3.75-19.15c0,0-.34,8.93,3.83,12.42Z" transform="translate(-106.74 859.76)" style="fill:#387aa3"/></svg>