<svg xmlns="http://www.w3.org/2000/svg" viewBox="0 0 437.97 374.17"><title>onBoardingStep3</title><path d="M878.61-842.16a136.11,136.11,0,0,1,22.95-15.24c19.46-10.24,43.63-16.28,65.62-17.14,23.35-.92,39.93,8.93,53.28,27.24,14.32,19.65,31.5,33.69,56.1,37.2,16.28,2.32,33.24,2.11,48.42,8.43,22.72,9.48,32.38,33.34,48.58,50.1,11.23,11.62,28,14.09,42.56,19.25,20,7.09,27.76,16.18,32.05,36.88,12.14,58.55,7.41,133.72-47.5,168.66-40.77,25.94-104.65,38.61-146.82,10.19-14.34-9.66-27.17-21.61-42.38-29.84-20.66-11.18-44.24-14.69-67.4-16.06-34.61-2.06-80.33-4.52-103.55-34.06-12.2-15.52-17.24-35.39-21-54.78C806.9-717,825.16-798.33,878.61-842.16Z" transform="translate(-815.7 874.6)" style="fill:#204e79"/><g style="opacity:0.2"><path d="M1187.14-673.24a11.13,11.13,0,0,0-5.68-6.42l-55-26.86a11.21,11.21,0,0,0-15,5.15l-9.63,19.73-11-77.29A13.07,13.07,0,0,0,1076-770l-21.34,3-3.66-3.35a2.55,2.55,0,0,0-.28-.21l-.08-.05-.24-.11-.09,0-.27-.08H1050a2,2,0,0,0-.35,0H987.93c1.92-4.57,3.12-8.81,3.12-12.31a32.92,32.92,0,0,0-32.88-32.88,32.92,32.92,0,0,0-32.88,32.88c0,3.5,1.2,7.74,3.12,12.31H916.34v-2.89a2.07,2.07,0,0,0-1-1.75,15.56,15.56,0,0,0-8.25-2.29c-7.73,0-14,5.4-14,12v141.07c0,6.29,5.48,11.44,12.72,12a12.85,12.85,0,0,0,1.29.06h8.62l1.73,12.16a13,13,0,0,0,5.09,8.61,13,13,0,0,0,7.82,2.62,13.06,13.06,0,0,0,1.87-.13l133.84-19.05-16.93,34.67a11.12,11.12,0,0,0-.52,8.56,11.08,11.08,0,0,0,5.67,6.42l55,26.86a11.18,11.18,0,0,0,4.91,1.14,11.23,11.23,0,0,0,3.65-.61,11.1,11.1,0,0,0,6.42-5.68l62.28-127.59A11.16,11.16,0,0,0,1187.14-673.24ZM958.17-773a11,11,0,0,1-11-11,11,11,0,0,1,11-11,11,11,0,0,1,11,11A11,11,0,0,1,958.17-773Z" transform="translate(-815.7 874.6)" style="fill:#000072"/></g><rect x="907.16" y="-768.51" width="189.83" height="154.46" rx="11.02" transform="translate(-708.27 1008.93) rotate(-8.1)" style="fill:#dbdbdb"/><path d="M928.34-600.83a13.1,13.1,0,0,1-12.94-11.23l-18.66-131.1a13.09,13.09,0,0,1,11.1-14.79L1074-781.6a13.1,13.1,0,0,1,14.79,11.1l18.66,131.1a13,13,0,0,1-2.48,9.7,13,13,0,0,1-8.62,5.09L930.19-601A12.89,12.89,0,0,1,928.34-600.83ZM1075.8-777.62a9.15,9.15,0,0,0-1.27.09L908.42-753.88a9,9,0,0,0-7.61,10.14l18.66,131.1A9,9,0,0,0,929.61-605l166.11-23.65a9,9,0,0,0,5.91-3.49,9,9,0,0,0,1.71-6.65l-18.67-131.1A9,9,0,0,0,1075.8-777.62Z" transform="translate(-815.7 874.6)" style="fill:#c1c1c1"/><path d="M1082.72-748.2v115.41a6.5,6.5,0,0,1-6.5,6.51H905.06c-.37,0-.74,0-1.11-.05-6.09-.46-10.85-4.73-10.85-9.94s4.76-9.49,10.85-9.94a10.31,10.31,0,0,1,1.11,0,13.55,13.55,0,0,1,7.15,2V-780.4h135.36Z" transform="translate(-815.7 874.6)" style="fill:#dbdbdb"/><path d="M1076.22-625.94H905.06c-.41,0-.79,0-1.14,0a13.23,13.23,0,0,1-7.91-3.28,9.43,9.43,0,0,1-3.25-7,9.49,9.49,0,0,1,3.25-7,13.3,13.3,0,0,1,7.92-3.28c.35,0,.72-.05,1.13-.05a13.92,13.92,0,0,1,6.81,1.73V-780.74H1047.7l.1.09,35.27,32.3v115.56A6.86,6.86,0,0,1,1076.22-625.94Zm-171.16-20a8.94,8.94,0,0,0-1.07,0c-6,.45-10.55,4.58-10.55,9.6s4.53,9.14,10.54,9.6c.34,0,.69,0,1.08,0h171.16a6.16,6.16,0,0,0,6.16-6.16V-748l-35-32H912.56v136.39L912-644A13.14,13.14,0,0,0,905.06-645.92Z" transform="translate(-815.7 874.6)" style="fill:#000072"/><polygon points="116.17 180.68 134.15 180.68 154.35 193.69 164.63 204.14 123.01 221.61 116.17 180.68" style="fill:#1cdb7c"/><polygon points="221.82 144.55 237.4 126.4 267.02 126.4 266.54 176.8 221.82 144.55" style="fill:#1cdb7c"/><path d="M1029-626.28h-15.16l-5-6a37.36,37.36,0,0,1-8.66-23.91,25.58,25.58,0,0,0-12-21.72L961.38-695A37.17,37.17,0,0,1,944-726.51V-780.4h11.65v53.89a25.58,25.58,0,0,0,11.94,21.72l26.87,17a37.18,37.18,0,0,1,17.35,31.56,25.78,25.78,0,0,0,6,16.46Z" transform="translate(-815.7 874.6)" style="fill:#4089ff"/><path d="M912.21-785.35v141.07a13.55,13.55,0,0,0-7.15-2,10.31,10.31,0,0,0-1.11,0c-6.09.45-10.85,4.74-10.85,9.94V-777.34c0-5.52,5.35-10,12-10A13.55,13.55,0,0,1,912.21-785.35Z" transform="translate(-815.7 874.6)" style="fill:#dbdbdb"/><g style="opacity:0.55"><path d="M912.21-785.35v1.7a14,14,0,0,0-2.7-.26c-6.6,0-12,4.47-12,10V-644a9.49,9.49,0,0,0-4.45,7.78V-777.34c0-5.52,5.35-10,12-10A13.55,13.55,0,0,1,912.21-785.35Z" transform="translate(-815.7 874.6)" style="fill:#fff"/></g><path d="M893.1-634.21a2.06,2.06,0,0,1-2.06-2.06V-777.34a11.2,11.2,0,0,1,4.24-8.64,15.21,15.21,0,0,1,9.78-3.41,15.51,15.51,0,0,1,8.24,2.3,2.06,2.06,0,0,1,1,1.74v141.07a2.06,2.06,0,0,1-1.06,1.8,2.08,2.08,0,0,1-2.09,0,11.34,11.34,0,0,0-6.06-1.68,8.35,8.35,0,0,0-.91,0h0c-5,.38-9,3.85-9,7.9A2.05,2.05,0,0,1,893.1-634.21Zm12-151.07c-5.46,0-9.91,3.56-9.91,7.94V-644.8a15,15,0,0,1,8.63-3.46,12.79,12.79,0,0,1,1.28-.06,16,16,0,0,1,5.1.82V-784.14A11.63,11.63,0,0,0,905.06-785.28Z" transform="translate(-815.7 874.6)" style="fill:#c1c1c1"/><path d="M1082.72-748.2h-26.94a8.22,8.22,0,0,1-8.21-8.22v-24Z" transform="translate(-815.7 874.6)" style="fill:#dbdbdb"/><g style="opacity:0.30000000000000004"><path d="M1082.64-739.07h-22.29a8.22,8.22,0,0,1-8.22-8.22v-1.77a8.15,8.15,0,0,0,3.66.86h26.57Z" transform="translate(-815.7 874.6)" style="fill:#282e6b"/><path d="M1083-738.73h-22.64a8.57,8.57,0,0,1-8.56-8.56v-2.32l.49.24a7.77,7.77,0,0,0,3.51.82h26.9Zm-30.52-9.8v1.24a7.89,7.89,0,0,0,7.88,7.88h21.93l-.25-8.45h-26.24A8.35,8.35,0,0,1,1052.47-748.53Z" transform="translate(-815.7 874.6)" style="fill:#000072"/></g><path d="M1082.72-746.15h-26.94a10.29,10.29,0,0,1-10.27-10.27v-24a2.06,2.06,0,0,1,1.23-1.88,2.06,2.06,0,0,1,2.21.37l35.16,32.19a2,2,0,0,1,.53,2.26A2.06,2.06,0,0,1,1082.72-746.15Zm-33.1-29.58v19.31a6.17,6.17,0,0,0,6.16,6.16h21.66Z" transform="translate(-815.7 874.6)" style="fill:#c1c1c1"/><polygon points="244.76 248.32 237.23 248.32 237.23 210.35 161.34 146.77 157.1 94.51 164.61 93.9 168.59 143.02 244.76 206.83 244.76 248.32" style="fill:#fff"/><polygon points="127.64 248.32 120.1 248.32 120.1 219.85 173.62 195.91 198.32 172.3 203.53 177.74 177.89 202.26 127.64 224.73 127.64 248.32" style="fill:#fff"/><polygon points="199.25 94.21 203.07 117.5 219.76 116.3 218.05 94.21 199.25 94.21" style="fill:#1cdb7c"/><polygon points="120.16 222.91 109.72 160.3 96.51 160.3 96.51 152.77 116.1 152.77 127.59 221.67 120.16 222.91" style="fill:#fff"/><polygon points="120.1 94.21 113.6 130.51 96.51 140.44 96.51 94.21 120.1 94.21" style="fill:#9cadb7"/><polygon points="113.73 160.21 112.09 152.86 163.53 141.35 190.96 124.52 185.91 94.84 193.34 93.58 199.25 128.28 166.4 148.43 113.73 160.21" style="fill:#fff"/><polygon points="266.03 178.65 251.61 174.7 192.81 129.38 197.4 123.42 255.04 167.83 268.02 171.39 266.03 178.65" style="fill:#fff"/><rect x="241" y="225.37" width="26.03" height="7.53" style="fill:#fff"/><path d="M1076.22-624.23H905.06c-.46,0-.88,0-1.28,0a15,15,0,0,1-8.92-3.72,11.16,11.16,0,0,1-3.82-8.27,11.16,11.16,0,0,1,3.82-8.27,15,15,0,0,1,8.92-3.72,12.79,12.79,0,0,1,1.28-.06,16,16,0,0,1,5.1.82V-780.4a2.05,2.05,0,0,1,2.05-2.05h135.36a2,2,0,0,1,1.38.54l35.16,32.19a2,2,0,0,1,.67,1.52v115.41A8.57,8.57,0,0,1,1076.22-624.23Zm-171.16-20a8.35,8.35,0,0,0-.91,0h0c-5,.38-9,3.85-9,7.9s3.94,7.51,9,7.89h0a8.35,8.35,0,0,0,.91,0h171.16a4.45,4.45,0,0,0,4.45-4.45V-747.3l-33.9-31H914.27v134.06a2.06,2.06,0,0,1-1.06,1.8,2.08,2.08,0,0,1-2.09,0A11.34,11.34,0,0,0,905.06-644.21Z" transform="translate(-815.7 874.6)" style="fill:#c1c1c1"/><polygon points="209.61 198.93 230.41 213.39 230.41 232.91 221.13 233.94 203.53 205.63 209.61 198.93" style="fill:#9cadb7"/><polygon points="186.37 142.67 195.1 136.67 219.76 156.37 213.3 164.41 186.37 142.67" style="fill:#9cadb7"/><polygon points="132.32 228.4 132.32 243.81 174.61 234.74 172.06 211.11 132.32 228.4" style="fill:#9cadb7"/><path d="M956.09-825.59a30.82,30.82,0,0,0-30.82,30.83c0,12.4,16.38,35.46,25.26,47.07a7,7,0,0,0,11.14,0c8.88-11.61,25.25-34.67,25.25-47.07A30.83,30.83,0,0,0,956.09-825.59Zm0,43.12a13,13,0,0,1-13-13,13,13,0,0,1,13-13,13,13,0,0,1,13,13A13,13,0,0,1,956.09-782.47Z" transform="translate(-815.7 874.6)" style="fill:#f43f08"/><g style="opacity:0.30000000000000004"><path d="M920.85-780.4v154.12H905.06c-.37,0-.74,0-1.11-.05-6.09-.46-10.85-4.73-10.85-9.94s4.76-9.49,10.85-9.94a10.31,10.31,0,0,1,1.11,0,13.55,13.55,0,0,1,7.15,2V-780.4Z" transform="translate(-815.7 874.6)" style="fill:#000072"/></g><path d="M1111.22-712l-62.28,127.59a9.15,9.15,0,0,0,4.21,12.23l55,26.86a9.12,9.12,0,0,0,7.69.16h0a9.07,9.07,0,0,0,4.53-4.35l62.28-127.59a9.15,9.15,0,0,0-4.2-12.24l-55-26.86A9.14,9.14,0,0,0,1111.22-712Z" transform="translate(-815.7 874.6)" style="fill:#f7f7f7"/><path d="M1112.19-544.08a9.52,9.52,0,0,1-4.16-1l-55-26.86a9.49,9.49,0,0,1-4.36-12.69l62.28-127.59a9.5,9.5,0,0,1,12.68-4.37l55,26.86a9.5,9.5,0,0,1,4.81,5.45A9.46,9.46,0,0,1,1183-677L1120.72-549.4a9.53,9.53,0,0,1-4.59,4.47h0l-.11,0A9.42,9.42,0,0,1,1112.19-544.08Zm-.66-167.8-62.28,127.59a8.81,8.81,0,0,0,4,11.77l55,26.87a8.79,8.79,0,0,0,7.37.16l0,0a8.78,8.78,0,0,0,4.35-4.19l62.28-127.59a8.79,8.79,0,0,0,.42-6.73,8.75,8.75,0,0,0-4.46-5.05l-55-26.86a8.81,8.81,0,0,0-11.77,4Z" transform="translate(-815.7 874.6)" style="fill:#666"/><g style="opacity:0.2"><path d="M1084.74-575.89a2.33,2.33,0,0,0-3.12,1.08l-2.26,4.62L1091-564.5a2.34,2.34,0,0,0,3.13-1.07l2.26-4.63Z" transform="translate(-815.7 874.6)" style="fill:#000072"/></g><g style="opacity:0.2"><path d="M1115.51-709.93l-62.28,127.59a4.36,4.36,0,0,0,2,5.84l22.26,10.87c-2-3.17-3.78-4.29-3.22-8.17.82-1.69,3-6.74,4.44-7.77a8.41,8.41,0,0,1,4.09-1.08,3.81,3.81,0,0,0,3.54-3.36c.12-1,.23-1.65.23-1.65s7.28-7.18,15.85-9.3c-3.3-35,3.52-73.43,19.3-114.81l-.37-.18A4.37,4.37,0,0,0,1115.51-709.93Z" transform="translate(-815.7 874.6)" style="fill:#000072"/></g><path d="M1167.93-663.67l-14.37,29.43L1143-612.48l-9.86,20.2-5.86,12-2.69,5.52a5.28,5.28,0,0,1-1.14,1.53,5,5,0,0,1-5.64.8l-15.91-7.76-33.23-16.22a5.07,5.07,0,0,1-2.33-6.78l15.06-30.85L1092-655.82l3.66-7.49,5.85-12,8.2-16.8a5,5,0,0,1,2.11-2.21,5,5,0,0,1,4.67-.12l17.42,8.5,31.72,15.48A5.08,5.08,0,0,1,1167.93-663.67Z" transform="translate(-815.7 874.6)" style="fill:#4089ff"/><g style="opacity:0.2"><path d="M1124.78-573.25a5,5,0,0,1-5.64.8l-15.92-7.76-20.5-53.85,10.63-21.76Z" transform="translate(-815.7 874.6)" style="fill:#fff"/></g><g style="opacity:0.2"><polygon points="321.15 274.61 315.29 286.59 283.69 203.58 289.54 191.59 321.15 274.61" style="fill:#fff"/></g><g style="opacity:0.30000000000000004"><path d="M1168-663.86l-.13-.07-31.71-15.48-17.43-8.5a5,5,0,0,0-4.67.12,5,5,0,0,0-2.11,2.21l-8.2,16.8-5.85,12-3.66,7.49-10.62,21.76-15.05,30.85a1.76,1.76,0,0,0-.09.2,5.08,5.08,0,0,1-2.2-6.72l15.06-30.85L1092-655.82l3.66-7.49,5.85-12,8.2-16.8a5,5,0,0,1,2.11-2.21,5,5,0,0,1,4.67-.12l17.42,8.5,31.72,15.48A5.07,5.07,0,0,1,1168-663.86Z" transform="translate(-815.7 874.6)" style="fill:#000072"/></g><path d="M1151.31-687a1.3,1.3,0,0,1-.61-.14l-11.88-5.8a1.39,1.39,0,0,1-.64-1.86,1.38,1.38,0,0,1,1.85-.63l11.89,5.8a1.38,1.38,0,0,1,.63,1.85A1.39,1.39,0,0,1,1151.31-687Z" transform="translate(-815.7 874.6)" style="fill:#666"/><path d="M1150.1-694.15a1,1,0,0,1-.48-.12l-4.55-2.22a1.11,1.11,0,0,1-.51-1.48,1.11,1.11,0,0,1,1.48-.51l4.55,2.22a1.11,1.11,0,0,1,.51,1.48A1.11,1.11,0,0,1,1150.1-694.15Z" transform="translate(-815.7 874.6)" style="fill:#666"/><circle cx="315.88" cy="176.55" r="2.42" style="fill:#666"/><polygon points="304.44 265.29 297.89 246.8 278.42 249.19 312.86 222.59 304.44 265.29" style="fill:#fff"/><polygon points="304.44 265.29 297.89 246.8 278.42 249.19 312.86 222.59 304.44 265.29" style="fill:#fff"/><path d="M1092-563.08a3.45,3.45,0,0,1-1.54-.36l-11.77-5.74a3.48,3.48,0,0,1-1.78-2,3.47,3.47,0,0,1,.16-2.68l2.34-4.78a3.46,3.46,0,0,1,2-1.78,3.49,3.49,0,0,1,2.69.16l11.76,5.74a3.53,3.53,0,0,1,1.79,2,3.51,3.51,0,0,1-.17,2.68L1095.2-565a3.54,3.54,0,0,1-2,1.78A3.45,3.45,0,0,1,1092-563.08Zm-9.43-15.2a1.21,1.21,0,0,0-.38.06,1.13,1.13,0,0,0-.66.59l-2.34,4.78a1.19,1.19,0,0,0,0,.89,1.15,1.15,0,0,0,.58.66l11.77,5.75h0a1.19,1.19,0,0,0,.89,0,1.16,1.16,0,0,0,.66-.59l2.33-4.78a1.12,1.12,0,0,0,.06-.88,1.15,1.15,0,0,0-.59-.67l-11.77-5.74A1.11,1.11,0,0,0,1082.61-578.28Z" transform="translate(-815.7 874.6)" style="fill:#666"/><g style="opacity:0.30000000000000004"><path d="M918.49-618.74c1.66,0,143.18-3,143.18-3l5.71-3.72H915.57Z" transform="translate(-815.7 874.6)" style="fill:#000072"/></g></svg>