<svg xmlns="http://www.w3.org/2000/svg" viewBox="0 0 430.26 414.38"><title>Reclamapp</title><polygon points="26.35 326.54 52.31 299.09 92.74 290.44 123.36 326.54 26.35 326.54" style="fill:#ddbc19"/><polygon points="145.32 326.54 299.06 326.54 177.93 266.98 113.37 285.61 145.32 326.54" style="fill:#298c20"/><polygon points="341.32 326.54 398.22 326.54 339.32 265.31 203.05 260.99 341.32 326.54" style="fill:#7a7a7a"/><polygon points="70.61 280.29 142.49 206.25 215.53 206.25 218.69 220.39 216.36 243.27 70.61 280.29" style="fill:#e56200"/><polygon points="229.46 250.63 329.12 250.63 286.53 206.25 231.95 206.25 229.46 215.3 229.46 250.63" style="fill:#298c20"/><path d="M24.72,392.25V343.53H48q9.26,0,13.64,3.31t4.38,10.25a12.74,12.74,0,0,1-1.87,7,14.23,14.23,0,0,1-5.8,4.91,8.84,8.84,0,0,1,4.53,3.33q1.32,2.1,1.52,7.39c.07,1,.13,2.33.2,4,.15,3.93.83,6.2,2,6.82v1.68H53.59a23,23,0,0,1-1.09-7.08c-.09-3-.18-4.88-.26-5.65a5.92,5.92,0,0,0-1.92-4.17A7.58,7.58,0,0,0,45.46,374H37.12v18.22Zm12.4-27.85h9.3q3.77,0,5.54-1.38a5.33,5.33,0,0,0,1.76-4.44,4.69,4.69,0,0,0-1.71-4,8.68,8.68,0,0,0-5.26-1.31H37.12Z"/><path d="M74.5,392.25V343.53h37v10H87v8.6h22.42v9.76H87V382.3H112.3v9.95Z"/><path d="M163,375.19q-1.26,8.76-6.9,13.59t-14.56,4.83q-10.69,0-17.24-7t-6.55-18.36q0-11.83,6.67-18.88t17.84-7.05q8.86,0,14.47,4.67a18.12,18.12,0,0,1,6.4,12.73H151.39a8.9,8.9,0,0,0-3.25-5.27,10.36,10.36,0,0,0-6.3-1.77,9.71,9.71,0,0,0-8.27,4.13q-3,4.14-3,11.31t2.88,11.1a9.46,9.46,0,0,0,8.11,3.95,10.37,10.37,0,0,0,6.73-2.05,9.24,9.24,0,0,0,3.15-5.95Z"/><path d="M170.51,392.25V343.53H183V381.7H206.6v10.55Z"/><path d="M224.46,343.53h13.62l17.2,48.72H241.89l-3-8.93H222.64l-2.78,8.93H206.93Zm1.15,29.7h10.65l-5.42-16.8Z"/><path d="M260.08,392.25V343.53h17.16l6.42,23.72c.57,2.09,1.09,4.13,1.55,6.1s.87,3.9,1.23,5.77q.63-3,1.42-6.23c.53-2.17,1.13-4.51,1.82-7l6.05-22.36h17.13v48.72H301.49V370.66c0-1.53,0-3.66.11-6.4s.19-5.92.35-9.51l-9.36,37.5H280.22l-9.16-37.5q.22,6.48.36,11.66t.13,8.08v17.76Z"/><path d="M271.15,221.81v.35c-.09-.11-.19-.21-.28-.31Z" style="fill:#3f4f5c"/><polygon points="128.53 216.97 123.45 202.82 116.96 203.87 110.47 209.27 117.31 223.99 132.68 244.73 133.11 251 136.74 250.2 148.44 235.22 128.53 216.97" style="fill:#004682"/><polygon points="119.82 203.62 124.9 217.77 144.81 236.02 133.11 251 113.67 224.79 106.84 210.08 113.33 204.67 119.82 203.62" style="fill:#2c64b0"/><path d="M98.72,181.23c6.6,12.35,16.69,20.84,24.53,21.54,18.07-7.89,51.17-17.79,100-15l-30.37-56.84L113.4,173.38Z" style="fill:#bcd0db"/><path d="M98.72,181.23l-6.36,3.4-14,7.46c7.83,14.65,20.84,23.61,28.41,19.57h0a10.58,10.58,0,0,0,1.56-1.07,103.78,103.78,0,0,1,14.88-7.82C115.41,202.07,105.32,193.58,98.72,181.23Z" style="fill:#004682"/><path d="M98.72,181.23c-6.6-12.35-8.06-25.46-4.28-32.37a103.38,103.38,0,0,1-14.77,8,9.27,9.27,0,0,0-1.75.71h0c-7.57,4-7.35,19.84.48,34.49l14-7.46Z" style="fill:#2c64b0"/><path d="M94.44,148.86c-3.78,6.91-2.32,20,4.28,32.37l14.68-7.85,79.51-42.49L162.53,74.05C137.66,116.21,111,138.23,94.44,148.86Z" style="fill:#fff"/><ellipse cx="192.91" cy="130.89" rx="35.5" ry="64.45" transform="translate(-38.92 106.38) rotate(-28.12)" style="fill:#2c64b0"/><ellipse cx="192.91" cy="130.89" rx="30.92" ry="59.86" transform="translate(-38.92 106.38) rotate(-28.12)" style="fill:#bcd0db"/><ellipse cx="192.91" cy="130.89" rx="30.92" ry="59.86" transform="translate(-38.92 106.38) rotate(-28.12)" style="fill:#fff"/><path d="M160.93,100c-3.33,1.77-5.56,5.19-6.71,9.68,1.1,11,4.92,23.6,11.42,35.75s14.82,22.31,23.38,29.36c4.37,1.54,8.46,1.59,11.78-.19,10.44-5.58,10.14-27.38-.67-47.6S171.37,94.44,160.93,100Z" style="fill:#bcd0db"/><path d="M180.78,128.26a2.13,2.13,0,0,0-.41.28,27,27,0,0,1-3.9,2.05,51.07,51.07,0,0,1-16,3.81A110.6,110.6,0,0,0,172,155.89a50.73,50.73,0,0,1,12-11.16,27.52,27.52,0,0,1,3.87-2.11,2.45,2.45,0,0,0,.46-.18c2-1.06,1.93-5.21-.12-9.05S182.76,127.2,180.78,128.26Z" style="fill:#fff"/><path d="M182.25,136.6c2.06,3.85,5.06,6.25,6.72,5.37s1.32-4.72-.74-8.57-5.06-6.25-6.71-5.37S180.19,132.75,182.25,136.6Z" style="fill:#2c64b0"/><polygon points="191.54 65.87 197.83 54.87 192.14 55.04 202.96 42.05 196.88 52.3 203.46 52.17 191.54 65.87" style="fill:#f43131"/><polygon points="307.95 122.46 320.49 120.59 316.83 116.22 333.73 116.68 321.92 118.25 326.09 123.33 307.95 122.46" style="fill:#f43131"/><polygon points="243.31 178.19 255.5 181.64 253.97 176.16 269.18 183.53 257.77 180.1 259.48 186.46 243.31 178.19" style="fill:#f43131"/><polygon points="220.64 69.2 235.62 48.7 224.25 47.77 248.69 24.33 234.3 43.37 247.43 44.58 220.64 69.2" style="fill:#f43131"/><polygon points="252.31 160.39 277.5 163.55 272.8 153.15 305.15 163.15 281.52 159.81 286.83 171.87 252.31 160.39" style="fill:#f43131"/><path d="M301.24,77.66l.25-.11a8.79,8.79,0,1,1-2.44,14.33,8.67,8.67,0,0,1-2.67-7.11.36.36,0,0,0-.06-.28l-1.12-1.55c-.09-.13-.15-.12-.26,0l-1.84,1.31c-.16.12-.2.07-.27-.07-.25-.5-.51-1-.76-1.48-.07-.14-.11-.17-.25-.08l-2.58,1.69a.33.33,0,0,0-.16.22.88.88,0,0,1-.76.72c-.48.08-.95.18-1.43.29-.3.06-.62.12-.92.21a1.06,1.06,0,0,0-.83,1.08,4.09,4.09,0,0,0,.05.92c.19,1.22.44,2.44.74,3.64a4.18,4.18,0,0,0,.35,1,1.06,1.06,0,0,0,1.1.6l.48-.07,1.92-.4a.92.92,0,0,1,1.08.5A20.28,20.28,0,0,0,293,96,.9.9,0,0,1,293,97.2c-.39.59-.78,1.17-1.16,1.76a1.19,1.19,0,0,0,.22,1.81l.08.07a19.33,19.33,0,0,0,2.16,1.55,12.3,12.3,0,0,0,2,1.18,1.14,1.14,0,0,0,1.62-.47c.41-.6.8-1.21,1.2-1.81a.9.9,0,0,1,1.06-.43,21,21,0,0,0,3.77.74.9.9,0,0,1,.84.8l.39,1.94a4.13,4.13,0,0,0,.15.5,1,1,0,0,0,.9.71,3.84,3.84,0,0,0,.83,0c.9-.11,1.78-.31,2.66-.49a10.71,10.71,0,0,0,1.77-.46,1.23,1.23,0,0,0,.93-1.68.52.52,0,0,0,0-.11c-.13-.61-.25-1.23-.38-1.85a.91.91,0,0,1,.51-1.12,19.28,19.28,0,0,0,3-2,1,1,0,0,1,1.25-.07c.57.41,1.17.79,1.76,1.16a1.17,1.17,0,0,0,1.74-.2l.15-.17a28.35,28.35,0,0,0,1.89-2.7,7.87,7.87,0,0,0,.85-1.56,1.07,1.07,0,0,0-.39-1.36,14.46,14.46,0,0,0-1.63-1.09c-.93-.55-.86-.94-.63-1.73a16.77,16.77,0,0,0,.6-3.22.93.93,0,0,1,.85-1l1.86-.37a4.84,4.84,0,0,0,.51-.14,1.05,1.05,0,0,0,.76-1,3.85,3.85,0,0,0,0-.68,17.26,17.26,0,0,0-.32-1.93,18.54,18.54,0,0,0-.63-2.57,1.23,1.23,0,0,0-1.69-1l-2,.4a.91.91,0,0,1-1.09-.5,20.94,20.94,0,0,0-2.1-3.11.91.91,0,0,1,0-1.17c.32-.48.63-1,.95-1.43a5.77,5.77,0,0,0,.4-.68,1,1,0,0,0-.19-1.2,4.12,4.12,0,0,0-.61-.57c-.82-.63-1.69-1.18-2.56-1.75a7,7,0,0,0-1.51-.8,1.06,1.06,0,0,0-1.25.33,3.4,3.4,0,0,0-.23.3l-1.15,1.74a.91.91,0,0,1-1.06.41l-.55-.16a21.77,21.77,0,0,0-3.09-.56.93.93,0,0,1-1-.85c-.13-.63-.25-1.25-.38-1.88a3.31,3.31,0,0,0-.19-.61,1,1,0,0,0-.8-.62,3.51,3.51,0,0,0-.65,0,12.74,12.74,0,0,0-1.38.2,27.6,27.6,0,0,0-3.21.74c-1,.33-1.21.75-1,1.75.13.67.26,1.33.41,2a.88.88,0,0,1-.38,1c-.22.15-.46.26-.68.39a9.78,9.78,0,0,0-1,.64l2.86,1.47a.25.25,0,0,1,.16.3c-.06.57-.11,1.13-.17,1.73l1.77-.88Zm-5.43-2.48c.06-.53.1-1,.15-1.51a.19.19,0,0,0-.12-.24l-2.24-1.16a.27.27,0,0,0-.32,0c-.36.26-.71.51-1,.79a.76.76,0,0,1-1,.06c-.52-.34-1-.69-1.57-1a.92.92,0,0,0-1.31.16,2.5,2.5,0,0,0-.22.24c-.48.58-.87,1.21-1.29,1.83a8.25,8.25,0,0,0-.94,1.66.9.9,0,0,0,.37,1.21c.5.35,1,.68,1.51,1a.78.78,0,0,1,.39,1,14.62,14.62,0,0,0-.36,1.45,14.25,14.25,0,0,0-.21,1.5,1.06,1.06,0,0,0,.19-.11l2-1.34c.14-.1.2-.07.27.08.19.4.41.79.61,1.19.06.13.1.16.23.06l1.22-.86c.14-.1.28-.26.42-.26s.2.24.31.36a1,1,0,0,1,.08.11l.69,1,0,0a7.31,7.31,0,0,1,3.87-5.56c.11,0,.1-.12.09-.21-.09-.66-.19-1.32-.27-2,0-.15,0-.19-.2-.11C296.72,74.74,296.28,74.94,295.81,75.18Z" style="fill:#fefefe"/><path d="M301.24,77.66l-.39-2.83-1.77.88c.06-.6.11-1.16.17-1.73a.25.25,0,0,0-.16-.3l-2.86-1.47a9.78,9.78,0,0,1,1-.64c.22-.13.46-.24.68-.39a.88.88,0,0,0,.38-1c-.15-.66-.28-1.32-.41-2-.2-1,0-1.42,1-1.75a27.6,27.6,0,0,1,3.21-.74,12.74,12.74,0,0,1,1.38-.2,3.51,3.51,0,0,1,.65,0,1,1,0,0,1,.8.62,3.31,3.31,0,0,1,.19.61c.13.63.25,1.25.38,1.88a.93.93,0,0,0,1,.85,21.77,21.77,0,0,1,3.09.56l.55.16a.91.91,0,0,0,1.06-.41l1.15-1.74a3.4,3.4,0,0,1,.23-.3,1.06,1.06,0,0,1,1.25-.33,7,7,0,0,1,1.51.8c.87.57,1.74,1.12,2.56,1.75a4.12,4.12,0,0,1,.61.57,1,1,0,0,1,.19,1.2,5.77,5.77,0,0,1-.4.68c-.32.47-.63,1-.95,1.43a.91.91,0,0,0,0,1.17,20.94,20.94,0,0,1,2.1,3.11.91.91,0,0,0,1.09.5l2-.4a1.23,1.23,0,0,1,1.69,1,18.54,18.54,0,0,1,.63,2.57,17.26,17.26,0,0,1,.32,1.93,3.85,3.85,0,0,1,0,.68,1.05,1.05,0,0,1-.76,1,4.84,4.84,0,0,1-.51.14l-1.86.37a.93.93,0,0,0-.85,1,16.77,16.77,0,0,1-.6,3.22c-.23.79-.3,1.18.63,1.73a14.46,14.46,0,0,1,1.63,1.09,1.07,1.07,0,0,1,.39,1.36,7.87,7.87,0,0,1-.85,1.56,28.35,28.35,0,0,1-1.89,2.7l-.15.17a1.17,1.17,0,0,1-1.74.2c-.59-.37-1.19-.75-1.76-1.16a1,1,0,0,0-1.25.07,19.28,19.28,0,0,1-3,2A.91.91,0,0,0,312,101c.13.62.25,1.24.38,1.85a.52.52,0,0,1,0,.11,1.23,1.23,0,0,1-.93,1.68,10.71,10.71,0,0,1-1.77.46c-.88.18-1.76.38-2.66.49a3.84,3.84,0,0,1-.83,0,1,1,0,0,1-.9-.71,4.13,4.13,0,0,1-.15-.5l-.39-1.94a.9.9,0,0,0-.84-.8,21,21,0,0,1-3.77-.74.9.9,0,0,0-1.06.43c-.4.6-.79,1.21-1.2,1.81a1.14,1.14,0,0,1-1.62.47,12.3,12.3,0,0,1-2-1.18,19.33,19.33,0,0,1-2.16-1.55l-.08-.07a1.19,1.19,0,0,1-.22-1.81c.38-.59.77-1.17,1.16-1.76A.9.9,0,0,0,293,96a20.28,20.28,0,0,1-2.09-3.1.92.92,0,0,0-1.08-.5l-1.92.4-.48.07a1.06,1.06,0,0,1-1.1-.6,4.18,4.18,0,0,1-.35-1c-.3-1.2-.55-2.42-.74-3.64a4.09,4.09,0,0,1-.05-.92,1.06,1.06,0,0,1,.83-1.08c.3-.09.62-.15.92-.21.48-.11.95-.21,1.43-.29a.88.88,0,0,0,.76-.72.33.33,0,0,1,.16-.22l2.58-1.69c.14-.09.18-.06.25.08.25.49.51,1,.76,1.48.07.14.11.19.27.07l1.84-1.31c.11-.08.17-.09.26,0l1.12,1.55a.36.36,0,0,1,.06.28,8.67,8.67,0,0,0,2.67,7.11,8.79,8.79,0,1,0,2.44-14.33Z" style="fill:#333"/><path d="M295.81,75.18c.47-.24.91-.44,1.33-.67.15-.08.18,0,.2.11.08.66.18,1.32.27,2,0,.09,0,.16-.09.21a7.31,7.31,0,0,0-3.87,5.56l0,0-.69-1a1,1,0,0,0-.08-.11c-.11-.12-.17-.36-.31-.36s-.28.16-.42.26l-1.22.86c-.13.1-.17.07-.23-.06-.2-.4-.42-.79-.61-1.19-.07-.15-.13-.18-.27-.08l-2,1.34a1.06,1.06,0,0,1-.19.11,14.25,14.25,0,0,1,.21-1.5,14.62,14.62,0,0,1,.36-1.45.78.78,0,0,0-.39-1c-.51-.34-1-.67-1.51-1a.9.9,0,0,1-.37-1.21,8.25,8.25,0,0,1,.94-1.66c.42-.62.81-1.25,1.29-1.83a2.5,2.5,0,0,1,.22-.24.92.92,0,0,1,1.31-.16c.53.32,1.05.67,1.57,1a.76.76,0,0,0,1-.06c.34-.28.69-.53,1-.79a.27.27,0,0,1,.32,0l2.24,1.16a.19.19,0,0,1,.12.24C295.91,74.16,295.87,74.65,295.81,75.18Z" style="fill:#ef0102"/><path d="M163.83,225.2c.14-20.14,14.55-38.65,34.46-44.08A47,47,0,0,1,255,209.81a42,42,0,0,1-.57,32.11,129.63,129.63,0,0,1-16.15,27.8c-8,10.77-16.37,21.27-24.58,31.89-.7.9-1.39,1.82-2.08,2.73s-1.27,1-2,.07c-12.2-16.27-25.59-31.67-35.76-49.41-4.17-7.27-7.83-14.78-9.34-23.12C164.18,229.68,164.07,227.43,163.83,225.2Zm30.91,3a16.21,16.21,0,1,0,16.35-15.9A16.17,16.17,0,0,0,194.74,228.24Z" style="fill:#dd1212"/><path d="M238.51,103.58c-.94.12-1.68.24-2.41.3A3.74,3.74,0,0,1,232,100.5c-.42-3-.72-6-1.08-9-.62-5.18-1.21-10.37-1.9-15.54-.36-2.79.95-4.59,3.72-4.92,8-1,16-1.91,23.93-2.93,3.64-.47,5.32,1.65,5.21,4.76l-7.46.74L255,80l-6.64.78.79,6.55-6.51.91,1,6.85-6.26,1.12Z" style="fill:#333"/><path d="M248.46,92.28l6.77.69.65-6.63,6.64.45.57-6.65h4.24c-.1,1.46-.17,2.8-.28,4.14q-.74,8.3-1.48,16.59a3.61,3.61,0,0,1-4,3.56c-4.83-.31-9.66-.73-14.49-1.12-2.3-.18-4.61-.38-7.07-.59l.75-4.82,6.8.82Z" style="fill:#333"/><path d="M267.92,76.73,263,75.36l5.37-2.23Z" style="fill:#ef0102"/><path d="M261.16,77.42l-1.88-1.52,1.88-1.23Z" style="fill:#ef0102"/><path d="M258.56,80.57v2.81l-1.87-1.51Z" style="fill:#ef0102"/><path d="M263.75,70.7l.56-1.9,1.25,1.34Z" style="fill:#ef0102"/><path d="M267.65,139.6l-.74.89h1.41l-1.41,2.3,1.41-.67,2.52,3.72,3.2-1.41.59,1.41,3.94-1.27s.59-2.15-1-3.19l-.07-.52,2.92-.62-1.15-.94h19.46v8.51H246.48V139.3h21.43Z" style="fill:#333"/><path d="M258.89,116.48l4.87,16.29s-3.09-16.85-3.2-16.81Z" style="fill:#ef0102"/><polygon points="261.9 131.58 253.77 122.01 252.32 123.05 261.9 131.58" style="fill:#ef0102"/><polygon points="261.9 133.85 253.1 127.8 252.81 129.28 261.9 133.85" style="fill:#ef0102"/><polygon points="262.38 135.67 252.32 133.18 252.32 134.78 262.38 135.67" style="fill:#ef0102"/><path d="M258.3,137c-.22,0-7.87-1-7.87-1l-.45,1.34Z" style="fill:#ef0102"/><path d="M295.89,129.45l2.49-1-3.05-8.84s-.46-2-4.05-2.74l-3.77-5.06s-1.91-2.61-4.37-1.6l-6.47,1.9h0l-6.42,1.93c-2.62.5-2.78,3.73-2.78,3.73l-.39,6.29c-2.62,2.56-1.9,4.51-1.9,4.51l2.29,9.08,2.61-.56.78,2.51a2.46,2.46,0,0,0,3.26,1.92c2.28-.81,1.5-3.31,1.5-3.31l-.89-2.58,7.66-2.15v0l.55-.17.66-.19v0l7.58-2.4.67,2.65s.72,2.53,3.07,2A2.45,2.45,0,0,0,296.6,132Zm-26.2,1.37a2.23,2.23,0,1,1,2.23-2.23A2.22,2.22,0,0,1,269.69,130.82Zm16.24-12.59-4.39,1.3-9.28,2.77a24.63,24.63,0,0,0-3.12.93v-2.41c0-1.37-.35-3.61.83-4.65a2.63,2.63,0,0,1,1.15-.49c2.24-.57,4.47-1.2,6.7-1.84,1.07-.31,2.13-.65,3.21-.93a27.8,27.8,0,0,1,2.92-.86,3,3,0,0,1,3,1.45c.34.58.68,1.22,1,1.83a14.22,14.22,0,0,1,1.12,1.91C288,117.57,287,117.91,285.93,118.23Zm5.7,6a2.23,2.23,0,1,1,2.23-2.22A2.22,2.22,0,0,1,291.63,124.23Z" style="fill:#333"/><path d="M350.67,347.29a1.72,1.72,0,0,1,.72-.9,2,2,0,0,1,1-.32,2.57,2.57,0,0,1,1,.18,1.52,1.52,0,0,1,.71.52.87.87,0,0,1,.12.76,1.62,1.62,0,0,1-.78.86,23.54,23.54,0,0,0-1.69,5,62.21,62.21,0,0,0-1.22,6.67c-.31,2.4-.52,4.85-.65,7.35a65.55,65.55,0,0,0,0,7,32.23,32.23,0,0,0,.73,5.61,5.73,5.73,0,0,0,1.53,3.18.78.78,0,0,1,.24.87,1.86,1.86,0,0,1-.75.89,6.6,6.6,0,0,1-1.41.73,6.48,6.48,0,0,1-1.71.42,4.47,4.47,0,0,1-1.64-.09,2.29,2.29,0,0,1-1.24-.75,7.88,7.88,0,0,1-1.61-4.18,31,31,0,0,1-.11-6.24,16,16,0,0,0-3.42-.4,28.31,28.31,0,0,0-3.84.21c-1,2.89-2,5.67-3.08,8.35a51.22,51.22,0,0,1-3.46,7.19,5.75,5.75,0,0,1-2,2,5.34,5.34,0,0,1-2.39.7,4.72,4.72,0,0,1-2.25-.44,4.12,4.12,0,0,1-2.1-2.17,1.13,1.13,0,0,1-.09-.7.55.55,0,0,1,.39-.39,2.09,2.09,0,0,1,1,0,2.11,2.11,0,0,0,1.53-.32,4.55,4.55,0,0,0,1.57-1.47,30.6,30.6,0,0,0,2.69-5.11c.84-2,1.7-4.15,2.6-6.5a41.23,41.23,0,0,0-4.15,1.42,32.13,32.13,0,0,0-3.56,1.69,17.77,17.77,0,0,0-2.66,1.76,4.51,4.51,0,0,0-1.4,1.64,3,3,0,0,1-.69,1.21.6.6,0,0,1-.6.17.8.8,0,0,1-.43-.52,2.7,2.7,0,0,1-.19-.93,8.76,8.76,0,0,1,1.1-5.22,9.92,9.92,0,0,1,3.49-3.41,15.85,15.85,0,0,1,5.06-1.87,32.3,32.3,0,0,1,5.83-.62q1.46-3.75,3.14-7.46a49.77,49.77,0,0,1,3.77-6.89,30.53,30.53,0,0,1,4.66-5.58,15.8,15.8,0,0,1,5.81-3.47.9.9,0,0,1,.31-.06Zm-.81,2.26a7.42,7.42,0,0,0-3.56,2.63,26.55,26.55,0,0,0-3.07,5,70,70,0,0,0-2.8,6.64q-1.33,3.66-2.64,7.56a33.13,33.13,0,0,1,3.42.54c1.07.23,2.07.49,3,.78q.33-2.85.93-5.94c.41-2.07.86-4.11,1.38-6.12s1.05-4,1.62-5.87S349.28,351.13,349.86,349.55Z" style="fill:#204e79"/><path d="M359.79,350.65a3.39,3.39,0,0,1,1.77-1,6.77,6.77,0,0,1,2.09-.22,3.31,3.31,0,0,1,1.56.43c.4.24.48.53.24.86a12.23,12.23,0,0,0-.56,2.16c-.28,1.27-.61,2.92-1,4.95a13.8,13.8,0,0,1,1.54-2,8.86,8.86,0,0,1,1.85-1.54,6.52,6.52,0,0,1,2.16-.86,6.06,6.06,0,0,1,2.47,0,3.69,3.69,0,0,1,2.4,1.52,7.53,7.53,0,0,1,1.23,3,16.12,16.12,0,0,1,.19,4.06,25.73,25.73,0,0,1-.75,4.51,30.92,30.92,0,0,1-1.54,4.49,20.25,20.25,0,0,1-2.21,4,13,13,0,0,1-2.77,2.86,6.08,6.08,0,0,1-3.21,1.26,6,6,0,0,1-3-.32,4.21,4.21,0,0,1-1.82-1.57q-.56,3.59-1,7c-.29,2.26-.52,4.3-.67,6.12s-.22,3.34-.21,4.57a4.47,4.47,0,0,0,.45,2.41c.29.41.2.81-.29,1.21a4.78,4.78,0,0,1-1.85.9,5.5,5.5,0,0,1-2.28.12A1.92,1.92,0,0,1,353,398.4a9.09,9.09,0,0,1-.35-3.25c0-1.62.13-3.57.35-5.85s.52-4.8.91-7.55.79-5.52,1.23-8.32.91-5.53,1.4-8.19,1-5,1.38-7.11.81-3.81,1.14-5.17A8.88,8.88,0,0,1,359.79,350.65Zm2.64,14.62c-.19,1-.38,2.11-.57,3.2s-.38,2.2-.58,3.34a13.14,13.14,0,0,0,.29,1.63,7.31,7.31,0,0,0,.46,1.39,3.65,3.65,0,0,0,.64,1,1.58,1.58,0,0,0,.93.5c.54.11,1.14-.27,1.82-1.15a17.58,17.58,0,0,0,2-3.4,40.77,40.77,0,0,0,1.76-4.61,37.94,37.94,0,0,0,1.2-4.81,18.25,18.25,0,0,0,.31-4c-.05-1.12-.37-1.82-.94-2.11a1.45,1.45,0,0,0-1.48.24,8,8,0,0,0-1.84,1.74,22.42,22.42,0,0,0-2,3A40.33,40.33,0,0,0,362.43,365.27Z" style="fill:#204e79"/><path d="M383.85,342.65a3.39,3.39,0,0,1,1.77-1,6.74,6.74,0,0,1,2.08-.22,3.44,3.44,0,0,1,1.57.42q.59.38.24.87a11.34,11.34,0,0,0-.56,2.15c-.28,1.28-.61,2.93-1,5a13.13,13.13,0,0,1,1.54-2,8.71,8.71,0,0,1,1.85-1.55,6.72,6.72,0,0,1,2.16-.85,5.89,5.89,0,0,1,2.47,0,3.71,3.71,0,0,1,2.4,1.52,7.47,7.47,0,0,1,1.23,3,16.12,16.12,0,0,1,.19,4.06,25.73,25.73,0,0,1-.75,4.51,32.17,32.17,0,0,1-1.54,4.49,20.25,20.25,0,0,1-2.21,4,13.27,13.27,0,0,1-2.77,2.86,6.25,6.25,0,0,1-3.21,1.26,6,6,0,0,1-3-.32,4.16,4.16,0,0,1-1.82-1.58c-.37,2.4-.71,4.73-1,7s-.51,4.3-.66,6.12-.22,3.34-.21,4.57a4.47,4.47,0,0,0,.45,2.41c.29.41.19.81-.29,1.21a4.78,4.78,0,0,1-1.85.9,5.54,5.54,0,0,1-2.29.12A1.92,1.92,0,0,1,377,390.4a9.09,9.09,0,0,1-.35-3.25c0-1.62.13-3.57.35-5.85s.52-4.8.9-7.55.8-5.52,1.24-8.32.91-5.53,1.4-8.19.95-5,1.37-7.11.81-3.81,1.15-5.17A8.88,8.88,0,0,1,383.85,342.65Zm2.63,14.62c-.19,1-.38,2.11-.57,3.2s-.38,2.2-.57,3.34a13.14,13.14,0,0,0,.29,1.63,7.55,7.55,0,0,0,.46,1.39,3.65,3.65,0,0,0,.64,1,1.64,1.64,0,0,0,.93.5c.54.11,1.14-.28,1.82-1.15a17.58,17.58,0,0,0,2-3.4,40.77,40.77,0,0,0,1.76-4.61,36.21,36.21,0,0,0,1.19-4.81,17.72,17.72,0,0,0,.32-4c-.06-1.12-.37-1.82-.94-2.11a1.45,1.45,0,0,0-1.48.24,7.84,7.84,0,0,0-1.84,1.74,22.42,22.42,0,0,0-2,3A42.6,42.6,0,0,0,386.48,357.27Z" style="fill:#204e79"/></svg>